# xmcd
#
# Track frame offsets: 
#        150
#        1132
#        16928
#        36763
#        52644
#        72199
#        87785
#        102558
#        113434
#        132714
#        147905
#        164623
#        184944
#
# Disc length: 2730 seconds
#
# Revision: 1
# Processed by: cddbd v1.5.2PL0 Copyright (c) Steve Scherf et al.
# Submitted via: ExactAudioCopyFreeDBPlugin 1.0
#
DISCID=a50aa80d
DTITLE=Virgis Stakenas - Mercedes-Benz
DYEAR=2003
DGENRE=Country
TTITLE0=Vaziuojam su Mercedes-Benz
TTITLE1=Kelio vaikas
TTITLE2=Seni draugai
TTITLE3=Tevu namu slenkstis
TTITLE4=Vairuotojas
TTITLE5=Stiliaga
TTITLE6=Kai pirmakart...
TTITLE7=Kelias bega greit
TTITLE8=Be taves
TTITLE9=Snaudzia malunas prie kelio
TTITLE10=Senjorita
TTITLE11=Grisiu
TTITLE12=Kelelis tolimas
EXTD=
EXTT0=
EXTT1=
EXTT2=
EXTT3=
EXTT4=
EXTT5=
EXTT6=
EXTT7=
EXTT8=
EXTT9=
EXTT10=
EXTT11=
EXTT12=
PLAYORDER=
